<svg xmlns="http://www.w3.org/2000/svg" width="240" height="240" viewBox="0 0 240 240" fill="none">
  <g opacity="0.12" stroke="#172554" stroke-width="3" stroke-linecap="round" stroke-linejoin="round">
    <path d="M18 54c16-18 40-18 56 0s40 18 56 0 40-18 56 0" />
    <path d="M24 128c22 14 44 8 66-10 18-14 40-18 62-2 18 12 38 12 64-6" />
    <path d="M38 206c22-24 50-18 66-6 20 16 42 14 64-6 16-14 38-18 60-2" />
    <path d="M178 42c-6 10-6 18 0 28 6 10 6 18 0 28" />
    <path d="M66 18c10 6 18 6 28 0 10-6 18-6 28 0" />
    <path d="M208 162c-10 6-18 6-28 0-10-6-18-6-28 0" />
    <path d="M108 86c-10 6-10 16 0 22 10 6 10 16 0 22" />
  </g>
</svg>
