<?xml version="1.0" encoding="UTF-8" standalone="no"?>
<!DOCTYPE svg PUBLIC "-//W3C//DTD SVG 1.1//EN" "http://www.w3.org/Graphics/SVG/1.1/DTD/svg11.dtd">
<svg xmlns="http://www.w3.org/2000/svg" version="1.1" viewBox="0.00 0.00 1024.00 1024.00">
<g stroke-width="2.00" fill="none" stroke-linecap="butt">
<path stroke="#ffde80" vector-effect="non-scaling-stroke" d="
  M 497.65 130.48
  A 10.39 10.39 0.0 0 0 487.26 120.09
  A 10.39 10.39 0.0 0 0 476.87 130.48
  A 10.39 10.39 0.0 0 0 487.26 140.87
  A 10.39 10.39 0.0 0 0 497.65 130.48"
/>
<path stroke="#ffde80" vector-effect="non-scaling-stroke" d="
  M 486.57 181.00
  A 10.32 10.32 0.0 0 0 476.25 170.68
  A 10.32 10.32 0.0 0 0 465.93 181.00
  A 10.32 10.32 0.0 0 0 476.25 191.32
  A 10.32 10.32 0.0 0 0 486.57 181.00"
/>
<path stroke="#ffde80" vector-effect="non-scaling-stroke" d="
  M 532.17 199.24
  A 10.37 10.37 0.0 0 0 521.80 188.87
  A 10.37 10.37 0.0 0 0 511.43 199.24
  A 10.37 10.37 0.0 0 0 521.80 209.61
  A 10.37 10.37 0.0 0 0 532.17 199.24"
/>
<path stroke="#89919e" vector-effect="non-scaling-stroke" d="
  M 360.46 392.73
  Q 329.83 398.61 307.67 420.43
  C 295.05 432.87 287.04 447.14 280.93 463.35
  A 2.07 2.06 2.6 0 1 279.55 464.61
  C 233.53 477.25 195.47 511.58 182.16 557.65
  Q 171.60 594.18 178.85 632.28
  C 189.35 687.42 225.00 731.45 270.05 763.21
  Q 313.34 793.73 363.99 812.51
  C 404.71 827.61 446.98 835.30 489.96 829.63
  C 520.27 825.63 550.00 814.07 576.82 798.47
  A 1.10 1.08 39.5 0 1 577.77 798.39
  Q 619.64 814.22 663.24 819.70
  Q 683.52 822.25 702.93 820.37
  C 720.58 818.66 739.78 812.62 752.23 800.23
  Q 758.31 794.18 755.54 786.36
  C 754.01 782.07 750.12 776.24 746.72 772.07
  C 729.99 751.61 707.96 736.08 684.25 723.66
  A 0.81 0.80 35.3 0 1 684.03 722.40
  C 707.59 697.42 725.51 666.42 738.33 634.30
  Q 761.12 577.17 767.47 514.97
  C 769.99 490.35 771.43 468.86 769.49 449.82
  Q 768.91 444.10 769.40 441.16
  C 771.98 425.50 782.13 413.49 796.70 407.42
  C 802.96 404.81 810.01 402.51 816.94 398.75
  C 841.23 385.55 860.69 361.10 873.86 336.13
  Q 881.67 321.34 885.20 307.57
  Q 894.07 273.03 879.45 241.28
  Q 877.57 237.21 873.88 233.33
  C 870.35 229.63 865.44 227.93 862.00 232.49
  Q 855.37 241.30 852.58 244.59
  Q 839.00 260.64 819.94 270.02
  Q 814.58 272.66 804.94 276.07
  C 775.82 286.38 749.41 299.30 730.93 324.85
  A 0.39 0.39 0.0 0 1 730.37 324.93
  Q 696.54 297.40 652.24 294.05
  Q 639.97 293.12 632.37 292.84
  C 624.89 292.56 618.90 291.75 612.22 289.58
  Q 590.16 282.44 574.43 265.72
  C 570.90 261.98 568.08 260.02 563.64 262.91
  C 559.16 265.83 558.15 270.79 557.30 275.81
  C 554.20 294.15 553.99 316.23 561.69 333.55
  Q 567.20 345.92 577.74 359.04
  C 600.55 387.42 633.48 411.13 670.06 416.00
  Q 683.15 417.75 684.52 418.15
  Q 703.14 423.60 712.58 440.75
  Q 714.44 444.13 715.43 447.12
  Q 716.35 449.92 716.00 453.93
  C 712.54 493.09 690.96 528.47 654.38 543.79
  C 641.97 548.98 628.81 550.87 615.74 549.48
  C 590.12 546.75 565.11 536.15 541.85 523.40
  Q 513.99 508.13 486.05 488.89
  A 1.17 1.17 0.0 0 1 485.57 488.18
  Q 474.66 441.96 436.61 413.11
  Q 424.14 403.66 408.60 397.67
  Q 391.30 390.99 373.03 391.59
  A 0.25 0.25 0.0 0 1 372.89 391.13
  Q 382.16 385.60 393.23 377.51
  C 423.56 355.35 449.48 322.61 460.92 286.21
  C 466.97 266.93 468.62 245.66 456.74 228.56
  C 454.47 225.30 449.68 219.46 445.27 220.47
  Q 393.08 232.41 367.12 278.58
  Q 349.77 309.44 348.00 343.75
  C 347.13 360.59 350.70 378.50 360.68 392.19
  A 0.35 0.34 -23.7 0 1 360.46 392.73"
/>
<path stroke="#ffde80" vector-effect="non-scaling-stroke" d="
  M 494.25 231.99
  A 10.35 10.35 0.0 0 0 483.90 221.64
  A 10.35 10.35 0.0 0 0 473.55 231.99
  A 10.35 10.35 0.0 0 0 483.90 242.34
  A 10.35 10.35 0.0 0 0 494.25 231.99"
/>
<path stroke="#89701e" vector-effect="non-scaling-stroke" d="
  M 364.51 355.79
  Q 365.17 355.46 365.42 354.64
  C 372.31 332.41 382.54 309.89 396.30 289.79
  C 408.75 271.62 426.23 256.39 448.06 250.95
  A 0.54 0.53 -13.8 0 0 448.45 250.31
  Q 446.86 243.58 443.41 238.33
  A 0.73 0.73 0.0 0 0 442.61 238.03
  C 413.14 245.93 392.31 265.00 378.51 292.52
  Q 363.76 321.92 364.26 355.64
  A 0.17 0.17 0.0 0 0 364.51 355.79"
/>
<path stroke="#89919e" vector-effect="non-scaling-stroke" d="
  M 487.83 509.66
  Q 487.92 551.70 463.23 584.72
  C 438.34 618.01 397.74 634.83 356.91 622.60
  C 336.29 616.43 317.57 602.48 304.13 585.61
  Q 283.42 559.61 277.15 525.82
  Q 273.20 504.45 276.45 482.60
  A 0.14 0.14 0.0 0 0 276.26 482.44
  C 241.08 494.64 212.38 521.56 199.95 556.67
  Q 192.16 578.65 192.77 605.04
  C 193.84 651.39 216.57 694.37 250.07 725.68
  Q 270.41 744.70 293.60 759.39
  Q 342.54 790.41 396.55 805.68
  Q 422.98 813.15 449.48 814.71
  Q 493.30 817.28 533.76 801.24
  Q 543.80 797.26 556.15 791.21
  A 0.40 0.40 0.0 0 0 556.12 790.48
  Q 539.07 784.09 522.53 775.97
  Q 515.55 772.54 511.49 769.26
  C 502.03 761.61 496.01 750.19 496.17 738.09
  C 496.25 731.98 496.80 726.99 502.09 723.61
  Q 515.37 715.13 531.50 709.53
  Q 600.76 685.49 666.96 715.36
  A 1.20 1.20 0.0 0 0 668.34 715.08
  C 694.63 686.91 713.77 653.83 727.03 617.26
  Q 747.07 562.03 751.90 500.97
  Q 754.20 471.81 753.45 457.89
  C 753.13 451.92 751.69 447.02 752.42 441.15
  C 755.05 420.02 768.71 401.27 788.55 393.05
  Q 791.75 391.72 798.07 389.42
  C 824.55 379.76 843.40 356.14 856.91 332.50
  Q 862.77 322.25 866.83 310.82
  Q 876.97 282.25 866.91 253.85
  A 0.40 0.40 0.0 0 0 866.23 253.73
  Q 849.59 273.94 825.21 285.41
  Q 819.45 288.12 808.52 292.01
  Q 800.66 294.81 791.77 298.51
  Q 758.97 312.18 739.57 340.11
  Q 737.03 343.77 735.95 344.46
  Q 733.73 345.86 730.39 345.54
  Q 728.68 345.38 723.75 340.82
  C 703.69 322.26 679.13 312.97 651.80 310.43
  Q 641.83 309.50 633.59 309.27
  Q 622.92 308.96 615.52 307.24
  C 599.91 303.62 585.40 296.16 572.86 286.33
  A 0.40 0.40 0.0 0 0 572.21 286.63
  C 571.47 301.32 571.41 316.01 577.85 329.36
  Q 583.32 340.68 592.66 351.85
  C 607.81 369.96 628.48 385.89 650.13 394.34
  Q 661.21 398.66 669.45 399.57
  Q 683.51 401.11 688.02 402.35
  C 709.84 408.33 725.85 424.42 732.10 446.11
  C 733.28 450.19 733.06 453.45 732.60 457.90
  C 728.24 499.76 705.25 536.14 667.36 555.57
  Q 640.18 569.52 608.92 564.98
  C 585.04 561.50 562.45 552.48 541.49 541.48
  Q 516.04 528.14 488.32 509.39
  A 0.32 0.31 -73.3 0 0 487.83 509.66"
/>
<path stroke="#89701e" vector-effect="non-scaling-stroke" d="
  M 447.55 268.32
  C 431.58 272.97 418.38 286.96 409.15 300.68
  Q 395.46 321.04 386.28 346.03
  Q 383.23 354.34 379.28 365.35
  Q 379.04 366.04 379.31 366.55
  A 0.17 0.16 58.1 0 0 379.55 366.61
  Q 407.58 346.68 426.73 318.23
  C 436.78 303.29 444.96 286.20 448.12 268.83
  A 0.45 0.45 0.0 0 0 447.55 268.32"
/>
<path stroke="#89701e" vector-effect="non-scaling-stroke" d="
  M 303.17 453.93
  C 283.38 491.74 290.39 538.99 314.61 572.83
  Q 325.39 587.89 342.46 598.29
  C 372.35 616.49 408.06 613.83 434.51 590.91
  Q 460.35 568.52 468.37 534.33
  C 475.30 504.82 468.28 474.03 450.03 449.73
  C 436.65 431.90 418.41 417.43 397.36 411.39
  C 359.01 400.39 321.22 419.47 303.17 453.93"
/>
<path stroke="#89919e" vector-effect="non-scaling-stroke" d="
  M 738.47 789.59
  Q 736.81 786.36 733.25 781.99
  Q 721.94 768.11 706.78 756.94
  Q 680.60 737.65 649.25 725.75
  C 612.33 711.73 571.19 712.26 534.41 725.84
  Q 526.46 728.78 518.86 732.84
  Q 515.84 734.45 513.68 736.02
  A 2.13 2.12 70.8 0 0 512.81 737.83
  Q 513.21 747.13 518.99 753.95
  Q 522.50 758.09 533.21 763.09
  C 564.56 777.74 597.61 789.30 630.12 797.14
  Q 655.01 803.14 680.71 804.61
  Q 696.52 805.52 711.70 802.45
  C 720.98 800.58 731.76 796.73 738.28 790.69
  A 0.93 0.93 0.0 0 0 738.47 789.59"
/>
<path stroke="#89919e" vector-effect="non-scaling-stroke" d="
  M 441.3446 686.1006
  A 16.66 16.45 -90.5 0 0 425.0406 702.9036
  A 16.66 16.45 -90.5 0 0 441.6354 719.4194
  A 16.66 16.45 -90.5 0 0 457.9394 702.6164
  A 16.66 16.45 -90.5 0 0 441.3446 686.1006"
/>
</g>
<path fill="#ffffff" d="
  M 1024.00 0.00
  L 1024.00 1024.00
  L 0.00 1024.00
  L 0.00 0.00
  L 1024.00 0.00
  Z
  M 497.65 130.48
  A 10.39 10.39 0.0 0 0 487.26 120.09
  A 10.39 10.39 0.0 0 0 476.87 130.48
  A 10.39 10.39 0.0 0 0 487.26 140.87
  A 10.39 10.39 0.0 0 0 497.65 130.48
  Z
  M 486.57 181.00
  A 10.32 10.32 0.0 0 0 476.25 170.68
  A 10.32 10.32 0.0 0 0 465.93 181.00
  A 10.32 10.32 0.0 0 0 476.25 191.32
  A 10.32 10.32 0.0 0 0 486.57 181.00
  Z
  M 532.17 199.24
  A 10.37 10.37 0.0 0 0 521.80 188.87
  A 10.37 10.37 0.0 0 0 511.43 199.24
  A 10.37 10.37 0.0 0 0 521.80 209.61
  A 10.37 10.37 0.0 0 0 532.17 199.24
  Z
  M 360.46 392.73
  Q 329.83 398.61 307.67 420.43
  C 295.05 432.87 287.04 447.14 280.93 463.35
  A 2.07 2.06 2.6 0 1 279.55 464.61
  C 233.53 477.25 195.47 511.58 182.16 557.65
  Q 171.60 594.18 178.85 632.28
  C 189.35 687.42 225.00 731.45 270.05 763.21
  Q 313.34 793.73 363.99 812.51
  C 404.71 827.61 446.98 835.30 489.96 829.63
  C 520.27 825.63 550.00 814.07 576.82 798.47
  A 1.10 1.08 39.5 0 1 577.77 798.39
  Q 619.64 814.22 663.24 819.70
  Q 683.52 822.25 702.93 820.37
  C 720.58 818.66 739.78 812.62 752.23 800.23
  Q 758.31 794.18 755.54 786.36
  C 754.01 782.07 750.12 776.24 746.72 772.07
  C 729.99 751.61 707.96 736.08 684.25 723.66
  A 0.81 0.80 35.3 0 1 684.03 722.40
  C 707.59 697.42 725.51 666.42 738.33 634.30
  Q 761.12 577.17 767.47 514.97
  C 769.99 490.35 771.43 468.86 769.49 449.82
  Q 768.91 444.10 769.40 441.16
  C 771.98 425.50 782.13 413.49 796.70 407.42
  C 802.96 404.81 810.01 402.51 816.94 398.75
  C 841.23 385.55 860.69 361.10 873.86 336.13
  Q 881.67 321.34 885.20 307.57
  Q 894.07 273.03 879.45 241.28
  Q 877.57 237.21 873.88 233.33
  C 870.35 229.63 865.44 227.93 862.00 232.49
  Q 855.37 241.30 852.58 244.59
  Q 839.00 260.64 819.94 270.02
  Q 814.58 272.66 804.94 276.07
  C 775.82 286.38 749.41 299.30 730.93 324.85
  A 0.39 0.39 0.0 0 1 730.37 324.93
  Q 696.54 297.40 652.24 294.05
  Q 639.97 293.12 632.37 292.84
  C 624.89 292.56 618.90 291.75 612.22 289.58
  Q 590.16 282.44 574.43 265.72
  C 570.90 261.98 568.08 260.02 563.64 262.91
  C 559.16 265.83 558.15 270.79 557.30 275.81
  C 554.20 294.15 553.99 316.23 561.69 333.55
  Q 567.20 345.92 577.74 359.04
  C 600.55 387.42 633.48 411.13 670.06 416.00
  Q 683.15 417.75 684.52 418.15
  Q 703.14 423.60 712.58 440.75
  Q 714.44 444.13 715.43 447.12
  Q 716.35 449.92 716.00 453.93
  C 712.54 493.09 690.96 528.47 654.38 543.79
  C 641.97 548.98 628.81 550.87 615.74 549.48
  C 590.12 546.75 565.11 536.15 541.85 523.40
  Q 513.99 508.13 486.05 488.89
  A 1.17 1.17 0.0 0 1 485.57 488.18
  Q 474.66 441.96 436.61 413.11
  Q 424.14 403.66 408.60 397.67
  Q 391.30 390.99 373.03 391.59
  A 0.25 0.25 0.0 0 1 372.89 391.13
  Q 382.16 385.60 393.23 377.51
  C 423.56 355.35 449.48 322.61 460.92 286.21
  C 466.97 266.93 468.62 245.66 456.74 228.56
  C 454.47 225.30 449.68 219.46 445.27 220.47
  Q 393.08 232.41 367.12 278.58
  Q 349.77 309.44 348.00 343.75
  C 347.13 360.59 350.70 378.50 360.68 392.19
  A 0.35 0.34 -23.7 0 1 360.46 392.73
  Z
  M 494.25 231.99
  A 10.35 10.35 0.0 0 0 483.90 221.64
  A 10.35 10.35 0.0 0 0 473.55 231.99
  A 10.35 10.35 0.0 0 0 483.90 242.34
  A 10.35 10.35 0.0 0 0 494.25 231.99
  Z"
/>
<circle fill="#febd00" cx="487.26" cy="130.48" r="10.39"/>
<circle fill="#febd00" cx="476.25" cy="181.00" r="10.32"/>
<circle fill="#febd00" cx="521.80" cy="199.24" r="10.37"/>
<path fill="#13223c" d="
  M 360.46 392.73
  A 0.35 0.34 -23.7 0 0 360.68 392.19
  C 350.70 378.50 347.13 360.59 348.00 343.75
  Q 349.77 309.44 367.12 278.58
  Q 393.08 232.41 445.27 220.47
  C 449.68 219.46 454.47 225.30 456.74 228.56
  C 468.62 245.66 466.97 266.93 460.92 286.21
  C 449.48 322.61 423.56 355.35 393.23 377.51
  Q 382.16 385.60 372.89 391.13
  A 0.25 0.25 0.0 0 0 373.03 391.59
  Q 391.30 390.99 408.60 397.67
  Q 424.14 403.66 436.61 413.11
  Q 474.66 441.96 485.57 488.18
  A 1.17 1.17 0.0 0 0 486.05 488.89
  Q 513.99 508.13 541.85 523.40
  C 565.11 536.15 590.12 546.75 615.74 549.48
  C 628.81 550.87 641.97 548.98 654.38 543.79
  C 690.96 528.47 712.54 493.09 716.00 453.93
  Q 716.35 449.92 715.43 447.12
  Q 714.44 444.13 712.58 440.75
  Q 703.14 423.60 684.52 418.15
  Q 683.15 417.75 670.06 416.00
  C 633.48 411.13 600.55 387.42 577.74 359.04
  Q 567.20 345.92 561.69 333.55
  C 553.99 316.23 554.20 294.15 557.30 275.81
  C 558.15 270.79 559.16 265.83 563.64 262.91
  C 568.08 260.02 570.90 261.98 574.43 265.72
  Q 590.16 282.44 612.22 289.58
  C 618.90 291.75 624.89 292.56 632.37 292.84
  Q 639.97 293.12 652.24 294.05
  Q 696.54 297.40 730.37 324.93
  A 0.39 0.39 0.0 0 0 730.93 324.85
  C 749.41 299.30 775.82 286.38 804.94 276.07
  Q 814.58 272.66 819.94 270.02
  Q 839.00 260.64 852.58 244.59
  Q 855.37 241.30 862.00 232.49
  C 865.44 227.93 870.35 229.63 873.88 233.33
  Q 877.57 237.21 879.45 241.28
  Q 894.07 273.03 885.20 307.57
  Q 881.67 321.34 873.86 336.13
  C 860.69 361.10 841.23 385.55 816.94 398.75
  C 810.01 402.51 802.96 404.81 796.70 407.42
  C 782.13 413.49 771.98 425.50 769.40 441.16
  Q 768.91 444.10 769.49 449.82
  C 771.43 468.86 769.99 490.35 767.47 514.97
  Q 761.12 577.17 738.33 634.30
  C 725.51 666.42 707.59 697.42 684.03 722.40
  A 0.81 0.80 35.3 0 0 684.25 723.66
  C 707.96 736.08 729.99 751.61 746.72 772.07
  C 750.12 776.24 754.01 782.07 755.54 786.36
  Q 758.31 794.18 752.23 800.23
  C 739.78 812.62 720.58 818.66 702.93 820.37
  Q 683.52 822.25 663.24 819.70
  Q 619.64 814.22 577.77 798.39
  A 1.10 1.08 39.5 0 0 576.82 798.47
  C 550.00 814.07 520.27 825.63 489.96 829.63
  C 446.98 835.30 404.71 827.61 363.99 812.51
  Q 313.34 793.73 270.05 763.21
  C 225.00 731.45 189.35 687.42 178.85 632.28
  Q 171.60 594.18 182.16 557.65
  C 195.47 511.58 233.53 477.25 279.55 464.61
  A 2.07 2.06 2.6 0 0 280.93 463.35
  C 287.04 447.14 295.05 432.87 307.67 420.43
  Q 329.83 398.61 360.46 392.73
  Z
  M 364.51 355.79
  Q 365.17 355.46 365.42 354.64
  C 372.31 332.41 382.54 309.89 396.30 289.79
  C 408.75 271.62 426.23 256.39 448.06 250.95
  A 0.54 0.53 -13.8 0 0 448.45 250.31
  Q 446.86 243.58 443.41 238.33
  A 0.73 0.73 0.0 0 0 442.61 238.03
  C 413.14 245.93 392.31 265.00 378.51 292.52
  Q 363.76 321.92 364.26 355.64
  A 0.17 0.17 0.0 0 0 364.51 355.79
  Z
  M 487.83 509.66
  Q 487.92 551.70 463.23 584.72
  C 438.34 618.01 397.74 634.83 356.91 622.60
  C 336.29 616.43 317.57 602.48 304.13 585.61
  Q 283.42 559.61 277.15 525.82
  Q 273.20 504.45 276.45 482.60
  A 0.14 0.14 0.0 0 0 276.26 482.44
  C 241.08 494.64 212.38 521.56 199.95 556.67
  Q 192.16 578.65 192.77 605.04
  C 193.84 651.39 216.57 694.37 250.07 725.68
  Q 270.41 744.70 293.60 759.39
  Q 342.54 790.41 396.55 805.68
  Q 422.98 813.15 449.48 814.71
  Q 493.30 817.28 533.76 801.24
  Q 543.80 797.26 556.15 791.21
  A 0.40 0.40 0.0 0 0 556.12 790.48
  Q 539.07 784.09 522.53 775.97
  Q 515.55 772.54 511.49 769.26
  C 502.03 761.61 496.01 750.19 496.17 738.09
  C 496.25 731.98 496.80 726.99 502.09 723.61
  Q 515.37 715.13 531.50 709.53
  Q 600.76 685.49 666.96 715.36
  A 1.20 1.20 0.0 0 0 668.34 715.08
  C 694.63 686.91 713.77 653.83 727.03 617.26
  Q 747.07 562.03 751.90 500.97
  Q 754.20 471.81 753.45 457.89
  C 753.13 451.92 751.69 447.02 752.42 441.15
  C 755.05 420.02 768.71 401.27 788.55 393.05
  Q 791.75 391.72 798.07 389.42
  C 824.55 379.76 843.40 356.14 856.91 332.50
  Q 862.77 322.25 866.83 310.82
  Q 876.97 282.25 866.91 253.85
  A 0.40 0.40 0.0 0 0 866.23 253.73
  Q 849.59 273.94 825.21 285.41
  Q 819.45 288.12 808.52 292.01
  Q 800.66 294.81 791.77 298.51
  Q 758.97 312.18 739.57 340.11
  Q 737.03 343.77 735.95 344.46
  Q 733.73 345.86 730.39 345.54
  Q 728.68 345.38 723.75 340.82
  C 703.69 322.26 679.13 312.97 651.80 310.43
  Q 641.83 309.50 633.59 309.27
  Q 622.92 308.96 615.52 307.24
  C 599.91 303.62 585.40 296.16 572.86 286.33
  A 0.40 0.40 0.0 0 0 572.21 286.63
  C 571.47 301.32 571.41 316.01 577.85 329.36
  Q 583.32 340.68 592.66 351.85
  C 607.81 369.96 628.48 385.89 650.13 394.34
  Q 661.21 398.66 669.45 399.57
  Q 683.51 401.11 688.02 402.35
  C 709.84 408.33 725.85 424.42 732.10 446.11
  C 733.28 450.19 733.06 453.45 732.60 457.90
  C 728.24 499.76 705.25 536.14 667.36 555.57
  Q 640.18 569.52 608.92 564.98
  C 585.04 561.50 562.45 552.48 541.49 541.48
  Q 516.04 528.14 488.32 509.39
  A 0.32 0.31 -73.3 0 0 487.83 509.66
  Z
  M 447.55 268.32
  C 431.58 272.97 418.38 286.96 409.15 300.68
  Q 395.46 321.04 386.28 346.03
  Q 383.23 354.34 379.28 365.35
  Q 379.04 366.04 379.31 366.55
  A 0.17 0.16 58.1 0 0 379.55 366.61
  Q 407.58 346.68 426.73 318.23
  C 436.78 303.29 444.96 286.20 448.12 268.83
  A 0.45 0.45 0.0 0 0 447.55 268.32
  Z
  M 303.17 453.93
  C 283.38 491.74 290.39 538.99 314.61 572.83
  Q 325.39 587.89 342.46 598.29
  C 372.35 616.49 408.06 613.83 434.51 590.91
  Q 460.35 568.52 468.37 534.33
  C 475.30 504.82 468.28 474.03 450.03 449.73
  C 436.65 431.90 418.41 417.43 397.36 411.39
  C 359.01 400.39 321.22 419.47 303.17 453.93
  Z
  M 738.47 789.59
  Q 736.81 786.36 733.25 781.99
  Q 721.94 768.11 706.78 756.94
  Q 680.60 737.65 649.25 725.75
  C 612.33 711.73 571.19 712.26 534.41 725.84
  Q 526.46 728.78 518.86 732.84
  Q 515.84 734.45 513.68 736.02
  A 2.13 2.12 70.8 0 0 512.81 737.83
  Q 513.21 747.13 518.99 753.95
  Q 522.50 758.09 533.21 763.09
  C 564.56 777.74 597.61 789.30 630.12 797.14
  Q 655.01 803.14 680.71 804.61
  Q 696.52 805.52 711.70 802.45
  C 720.98 800.58 731.76 796.73 738.28 790.69
  A 0.93 0.93 0.0 0 0 738.47 789.59
  Z"
/>
<circle fill="#febd00" cx="483.90" cy="231.99" r="10.35"/>
<path fill="#febd00" d="
  M 364.51 355.79
  A 0.17 0.17 0.0 0 1 364.26 355.64
  Q 363.76 321.92 378.51 292.52
  C 392.31 265.00 413.14 245.93 442.61 238.03
  A 0.73 0.73 0.0 0 1 443.41 238.33
  Q 446.86 243.58 448.45 250.31
  A 0.54 0.53 -13.8 0 1 448.06 250.95
  C 426.23 256.39 408.75 271.62 396.30 289.79
  C 382.54 309.89 372.31 332.41 365.42 354.64
  Q 365.17 355.46 364.51 355.79
  Z"
/>
<path fill="#ffffff" d="
  M 488.32 509.39
  Q 516.04 528.14 541.49 541.48
  C 562.45 552.48 585.04 561.50 608.92 564.98
  Q 640.18 569.52 667.36 555.57
  C 705.25 536.14 728.24 499.76 732.60 457.90
  C 733.06 453.45 733.28 450.19 732.10 446.11
  C 725.85 424.42 709.84 408.33 688.02 402.35
  Q 683.51 401.11 669.45 399.57
  Q 661.21 398.66 650.13 394.34
  C 628.48 385.89 607.81 369.96 592.66 351.85
  Q 583.32 340.68 577.85 329.36
  C 571.41 316.01 571.47 301.32 572.21 286.63
  A 0.40 0.40 0.0 0 1 572.86 286.33
  C 585.40 296.16 599.91 303.62 615.52 307.24
  Q 622.92 308.96 633.59 309.27
  Q 641.83 309.50 651.80 310.43
  C 679.13 312.97 703.69 322.26 723.75 340.82
  Q 728.68 345.38 730.39 345.54
  Q 733.73 345.86 735.95 344.46
  Q 737.03 343.77 739.57 340.11
  Q 758.97 312.18 791.77 298.51
  Q 800.66 294.81 808.52 292.01
  Q 819.45 288.12 825.21 285.41
  Q 849.59 273.94 866.23 253.73
  A 0.40 0.40 0.0 0 1 866.91 253.85
  Q 876.97 282.25 866.83 310.82
  Q 862.77 322.25 856.91 332.50
  C 843.40 356.14 824.55 379.76 798.07 389.42
  Q 791.75 391.72 788.55 393.05
  C 768.71 401.27 755.05 420.02 752.42 441.15
  C 751.69 447.02 753.13 451.92 753.45 457.89
  Q 754.20 471.81 751.90 500.97
  Q 747.07 562.03 727.03 617.26
  C 713.77 653.83 694.63 686.91 668.34 715.08
  A 1.20 1.20 0.0 0 1 666.96 715.36
  Q 600.76 685.49 531.50 709.53
  Q 515.37 715.13 502.09 723.61
  C 496.80 726.99 496.25 731.98 496.17 738.09
  C 496.01 750.19 502.03 761.61 511.49 769.26
  Q 515.55 772.54 522.53 775.97
  Q 539.07 784.09 556.12 790.48
  A 0.40 0.40 0.0 0 1 556.15 791.21
  Q 543.80 797.26 533.76 801.24
  Q 493.30 817.28 449.48 814.71
  Q 422.98 813.15 396.55 805.68
  Q 342.54 790.41 293.60 759.39
  Q 270.41 744.70 250.07 725.68
  C 216.57 694.37 193.84 651.39 192.77 605.04
  Q 192.16 578.65 199.95 556.67
  C 212.38 521.56 241.08 494.64 276.26 482.44
  A 0.14 0.14 0.0 0 1 276.45 482.60
  Q 273.20 504.45 277.15 525.82
  Q 283.42 559.61 304.13 585.61
  C 317.57 602.48 336.29 616.43 356.91 622.60
  C 397.74 634.83 438.34 618.01 463.23 584.72
  Q 487.92 551.70 487.83 509.66
  A 0.32 0.31 -73.3 0 1 488.32 509.39
  Z
  M 441.3446 686.1006
  A 16.66 16.45 -90.5 0 0 425.0406 702.9036
  A 16.66 16.45 -90.5 0 0 441.6354 719.4194
  A 16.66 16.45 -90.5 0 0 457.9394 702.6164
  A 16.66 16.45 -90.5 0 0 441.3446 686.1006
  Z"
/>
<path fill="#febd00" d="
  M 447.55 268.32
  A 0.45 0.45 0.0 0 1 448.12 268.83
  C 444.96 286.20 436.78 303.29 426.73 318.23
  Q 407.58 346.68 379.55 366.61
  A 0.17 0.16 58.1 0 1 379.31 366.55
  Q 379.04 366.04 379.28 365.35
  Q 383.23 354.34 386.28 346.03
  Q 395.46 321.04 409.15 300.68
  C 418.38 286.96 431.58 272.97 447.55 268.32
  Z"
/>
<path fill="#febd00" d="
  M 314.61 572.83
  C 290.39 538.99 283.38 491.74 303.17 453.93
  C 321.22 419.47 359.01 400.39 397.36 411.39
  C 418.41 417.43 436.65 431.90 450.03 449.73
  C 468.28 474.03 475.30 504.82 468.37 534.33
  Q 460.35 568.52 434.51 590.91
  C 408.06 613.83 372.35 616.49 342.46 598.29
  Q 325.39 587.89 314.61 572.83
  Z"
/>
<ellipse fill="#13223c" cx="0.00" cy="0.00" transform="translate(441.49,702.76) rotate(-90.5)" rx="16.66" ry="16.45"/>
<path fill="#ffffff" d="
  M 738.47 789.59
  A 0.93 0.93 0.0 0 1 738.28 790.69
  C 731.76 796.73 720.98 800.58 711.70 802.45
  Q 696.52 805.52 680.71 804.61
  Q 655.01 803.14 630.12 797.14
  C 597.61 789.30 564.56 777.74 533.21 763.09
  Q 522.50 758.09 518.99 753.95
  Q 513.21 747.13 512.81 737.83
  A 2.13 2.12 70.8 0 1 513.68 736.02
  Q 515.84 734.45 518.86 732.84
  Q 526.46 728.78 534.41 725.84
  C 571.19 712.26 612.33 711.73 649.25 725.75
  Q 680.60 737.65 706.78 756.94
  Q 721.94 768.11 733.25 781.99
  Q 736.81 786.36 738.47 789.59
  Z"
/>
</svg>
